<?xml version="1.0" encoding="UTF-8"?>
<svg id="Livello_1" xmlns="http://www.w3.org/2000/svg" version="1.1" viewBox="0 0 841.89 595.28">
  <!-- Generator: Adobe Illustrator 29.2.0, SVG Export Plug-In . SVG Version: 2.1.0 Build 108)  -->
  <defs>
    <style>
      .st0 {
        fill: #1e3a1d;
        stroke: #1d3c1d;
      }

      .st0, .st1 {
        stroke-miterlimit: 10;
      }

      .st1 {
        fill: #accc52;
        stroke: #a8ca54;
      }
    </style>
  </defs>
  <path class="st1" d="M372.81,323.09c0,.77,2.25,1.87,3.49,2.47.15.07.27.13.3.14.48.21,1.16.45,3.11,1.05,3.31,1.02,2.9.89,3.74,1.11,4.13,1.07,8.26,1.28,8.26,1.28,2.91.16,7.57.43,13.02-1.36.74-.24,1.13-.4,5.11-2.21,7.11-3.23,10.66-4.85,11.32-5.19,3.63-1.89,10.65-6.07,16.94-13.28,2.57-2.95,4.41-5.7,5.53-7.4,3.07-4.64,4.91-8.46,5.53-9.79,1.35-2.88,3.32-7.14,4.6-12.94.89-4.04,2.64-11.99-.17-13.62-.91-.52-1.59.02-5.62,1.19-4.17,1.21-7.43,1.78-10.89,2.38-1.04.18-3.56.52-8.6,1.19-5.34.71-5.69.72-7.4,1.02-1.71.3-4.83.85-8.6,1.96-2.96.87-5.19,1.78-9.53,3.57-5.09,2.1-7.63,3.15-9.62,4.26-3.19,1.78-6.84,3.81-10.13,7.57-.5.58-1.5,1.83-3.49,4.34-2.09,2.63-3.13,3.95-3.83,4.94-.94,1.33-2.03,3.18-4.17,6.81-2.18,3.69-2.45,4.27-2.72,5.11-.73,2.22-1.4,5.97-.17,6.64.53.29.97-.23,5.96-2.98,1.19-.66,1.97-1.07,2.95-1.54,1.56-.75,2.14-.89,4.88-2.46,2.53-1.44,4.61-2.8,8.68-5.45,1.05-.68,4.18-2.73,9.53-6.3,2.99-2,4.28-3.18,6.99-4.61,1.36-.72,3.09-1.54,4.63-2.27,1.91-.91,3.52-1.63,4.64-2.14,1.41-.4,2.55-.76,3.32-1.02,1.29-.43,3.43-1.17,6.13-1.7,1.29-.25,1.86-.29,2.04,0,.27.42-.38,1.35-1.36,2.47-2.5,2.87-4.99,4.62-5.45,4.94,0,0-1.75,1.23-6.81,5.02-2.78,2.08-2.44,1.98-6.55,5.19-5.7,4.44-5.49,3.97-8.34,6.38-3.03,2.57-3.59,3.38-6.13,5.11-.51.35-.94.62-4.85,2.98-3.59,2.16-5.38,3.24-5.53,3.32-5.82,3.01-10.72,2.69-10.72,3.83Z"/>
  <path class="st0" d="M446.21,153.77c-8.68-8.11-22.58-10.55-34.3-6.51-3.12,1.08-13.49,4.65-18.37,15.3-3.22,7.04-3.61,16.21.11,23.17,4.86,9.09,13.62,16.51,13.62,16.51,1.77,1.5,4.18,3.36,3.74,4.94-.48,1.72-3.76.93-10.09,3.11-5.17,1.78-9.9,4.71-12.77,6.47-3.11,1.91-5.42,3.57-15.66,11.57-5.14,4.02-6.09,4.82-10.38,8.17-4.07,3.18-5.97,4.56-15.66,11.91-1.54,1.17-.68.52-11.36,8.64-5.35,4.07-8.43,6.4-12.81,9.4-1.77,1.22-2.07,1.38-4.13,2.81-5.19,3.59-7.78,5.39-10,7.4-.75.68-3.69,3.4-6.6,7.66-2.73,3.99-5.43,7.95-6.13,13.74-.67,5.55.85,9.9,1.66,12.13,2.39,6.61,6.49,10.47,7.32,11.23,5.12,4.7,10.67,6.08,14.47,6.98,3.22.76,6.46.85,12.94,1.02,4.71.13,9.86.27,16.68-.34,5.76-.51,10.54-.94,16.68-2.72.84-.25,4.08-1.24,8.16-3.02,3.46-1.5,5.84-2.84,9.03-4.64,2.64-1.49,6.86-3.86,12-7.45,2.17-1.51,2.54-1.87,10.98-8.38,3.87-2.99,7.74-5.99,11.62-8.98,9.74-7.51,11.79-9.02,11.49-9.57-.59-1.09-9.61,2.72-12.04,3.74-2.63,1.11-6.07,2.59-10.38,5.11-3.54,2.07-3.4,2.37-11.57,7.83-3.37,2.25-5.11,3.41-7.66,4.94-2.42,1.45-5.21,3.11-9.02,4.94-2.22,1.06-6.27,2.89-11.57,4.6-2.93.94-6.56,2.11-11.4,2.89-2.75.44-3.39.36-15.19.81-8.75.33-9.71.43-12.04.04-3.23-.53-7.1-1.22-10.94-4.13-1.46-1.11-5.07-3.93-6.64-9.06-2.01-6.58.82-12.17,1.53-13.53,1.35-2.57,3.3-4.35,7.15-7.79,1.68-1.5,3.13-2.7,10.43-8.21,5.66-4.28,9.98-7.48,14.3-10.89,4.31-3.4,5.99-4.84,8.85-7.15,7.64-6.16,9.66-7.19,22.81-16.85,9.28-6.82,13.16-9.9,21.23-15.23,6.45-4.26,10.15-6.38,15.36-7.74,6.67-1.74,12.15-1.28,14.98-1.02,9.84.89,16.8,4.63,20.77,6.81,2.17,1.2,3.19,1.93,11.4,8,7.18,5.31,12.34,9.11,20.43,15.15,10.77,8.05,11.36,8.48,13.32,10,4.78,3.71,6.43,5.14,11.57,9.02,2.23,1.68,5.27,3.98,9.4,6.91,5.65,4.01,6.26,4.18,9.83,6.88,3.82,2.89,6.15,4.66,8.85,7.49,4.34,4.56,6.64,6.98,7.28,10.94,1.11,6.94-3.92,12.4-4.43,12.94-2.74,2.89-5.78,3.88-9.45,5.02-4.94,1.54-8.34,1.64-18.98,1.96-16.39.49-16.52.51-18.38.51-8.75,0-8.25-.31-17.66-.3-9.37,0-14.05.01-16.98.26-3.35.28-6.74-.05-10.09.26-1.92.18-3.66.41-3.96-.26-.32-.72,1.15-2.23,4.09-5.23.2-.21.3-.31.48-.49,1.63-1.63,4.71-5.22,7.31-9.22,3.94-6.05,6.45-12.46,7.53-15.49,2.54-7.08,3.42-12.59,4.21-17.7,1.38-8.91,2.54-16.45-.51-18.13-.45-.25-1.15-.45-6.89,1.15-3.57,1-6.49,1.96-8.49,2.66,0,0-6.72,1.2-12.7,2.19-7.29,1.21-7.22,1.06-13.23,2.09-6.14,1.04-9.21,1.56-11.74,2.21-3.84.99-8.87,2.33-14.81,5.45-4.97,2.61-8.31,5.27-11.06,7.49-4.65,3.75-7.52,6.06-10.38,10.21-.08.11-.17.25-.29.43-1.56,2.33-4.1,6.69-5.33,12.17-.96,4.29-1.5,10.93-.21,11.28,1.44.38,3.16-7.59,10.43-17.4,2.69-3.64,5.77-7.69,11.06-11.4,3.58-2.5,7.15-3.94,14.3-6.81,4.65-1.87,7.62-3.06,11.91-4.09,2.81-.67,3.37-.6,13.11-1.87,8.33-1.09,12.49-1.69,14.47-2.21,6.62-1.75,9.45-3.91,11.19-2.43,1.12.95,1.02,2.73.77,6.26-.24,3.36-.87,6.61-2.04,10.47-2.12,6.96-4.71,11.62-5.36,12.77-1.34,2.36-2.45,3.94-3.87,5.96-2.6,3.69-5.75,8.26-10.55,12.6-.94.85-4.56,4.06-10.38,7.49-11.79,6.95-22.19,8.65-21.96,9.7.11.52,2.74.32,5.62.17,3.08-.16-3.79.28,21.11.17,11.83-.05,13.81-.14,19.91-.17,10.28-.05,10.73.12,31.4.34,34.82.37,23.64-.22,29.11,0,5.36.22,10.86.57,18.3-.85,8.69-1.66,13.01-4.41,14.13-5.15,6.18-4.08,9.14-9.22,9.7-10.21,1.34-2.39,4.4-8.03,3.57-15.45-.81-7.26-4.86-11.99-6.98-14.47-1.37-1.6-3.89-3.52-8.85-7.32-3.97-3.04-6.92-5.16-12.38-9.06-11.35-8.12-11.29-8.07-12.6-9.02-6.36-4.63-7.66-5.8-14.17-10.68-13.16-9.88-12.41-8.41-20.43-14.81-5.57-4.45-10.18-8.52-18.72-14.64-4.18-3-7.32-5.07-11.74-6.81-2.39-.94-5.04-2.07-8.78-2.81-3.88-.76-4.56-.27-7.17-1.32-3.29-1.32-5.95-3.6-6.85-4.38-.46-.4-1.14-1.05-2.5-2.36-1.63-1.57-3.13-3.05-4.01-3.93-4.4-4.44-6.85-6.9-9.45-10.47-2.45-3.36-3.79-5.2-4.68-8.26-.51-1.74-1.44-5.12-.38-9.19,1.35-5.2,5.07-8.08,6.38-9.06,3.83-2.88,7.72-3.4,10.21-3.7,2.88-.35,8.73-1.05,14.17,2.43,6.19,3.96,8.02,10.91,8.3,12.04,1.23,4.96-.25,7.52,1.91,9.66,2.21,2.18,6.69,2.44,9.06.51,4.13-3.36.82-12.55-.13-15.19-.64-1.79-2.56-6.92-7.45-11.49Z"/>
</svg>