<?xml version="1.0" encoding="UTF-8"?>
<svg id="Livello_1" xmlns="http://www.w3.org/2000/svg" version="1.1" viewBox="0 0 841.9 595.3">
  <!-- Generator: Adobe Illustrator 29.2.0, SVG Export Plug-In . SVG Version: 2.1.0 Build 108)  -->
  <defs>
    <style>
      .st0 {
        fill: #183d2d;
      }

      .st1 {
        fill: #193d2d;
      }

      .st2 {
        fill: #a4c26b;
      }
    </style>
  </defs>
  <path class="st0" d="M73.9,287.2c-10.7,0-20.5-2.8-29.2-8.3-8.7-5.6-16.2-13.4-22.4-23.5-6.2-10.1-11-22.1-14.3-35.9-3.3-13.8-5-28.9-5-45.2s1.6-30.8,4.8-44.5c3.2-13.7,7.9-25.7,14.1-35.9,6.2-10.2,13.7-18.2,22.5-23.9,8.8-5.7,18.8-8.6,29.9-8.6s16.8,1.7,23.8,5.1c7,3.4,13.1,8.1,18.1,14,5.4,6.4,9.7,13.9,12.9,22.5,3.2,8.7,5.3,18.1,6.4,28.2h-20.7c-1.1-8.7-3.5-16.4-7-23s-8.1-11.7-13.8-15.4-12.4-5.6-20.1-5.6-19.7,3.8-27.1,11.3c-7.5,7.6-13.2,17.9-17.1,31-3.9,13.1-5.8,27.9-5.8,44.6s2.1,32.5,6.2,45.5c4.1,13,10,23.2,17.5,30.5,7.5,7.3,16.4,10.9,26.5,10.9s16.8-2.6,22.8-7.9c6-5.3,10.6-12.3,13.8-21,3.2-8.7,5.1-18.2,5.7-28.5h20.7c0,10.8-1.7,21.5-4.8,32.3-3.2,10.8-7.5,20.2-13.2,28-5.7,8.1-12.3,14-19.9,17.6s-16.1,5.5-25.5,5.5h0Z"/>
  <path class="st0" d="M159.7,282.9V65.4h18.9v217.5h-18.9Z"/>
  <path class="st0" d="M252.4,287.2c-10.9,0-20.3-3.7-28.3-11.1-8-7.4-14.1-17.4-18.4-29.9-4.3-12.5-6.5-26.4-6.5-41.7s2.2-29,6.5-41.5c4.3-12.4,10.5-22.3,18.4-29.8,8-7.4,17.4-11.1,28.3-11.1s20.4,3.7,28.3,11.1c7.9,7.4,14,17.3,18.2,29.8,4.2,12.4,6.4,26.2,6.4,41.5s-2.1,29.2-6.4,41.7c-4.2,12.5-10.3,22.5-18.2,29.9-7.9,7.4-17.3,11.1-28.3,11.1ZM252.2,264.9c7.5,0,13.7-2.7,18.7-8.1,5-5.4,8.8-12.6,11.3-21.8,2.5-9.1,3.8-19.4,3.8-30.7s-1.3-21.6-3.8-30.7c-2.5-9.2-6.3-16.5-11.3-21.9-5-5.4-11.2-8.1-18.7-8.1s-13.6,2.7-18.6,8.1c-5,5.4-8.8,12.7-11.4,21.9-2.5,9.2-3.8,19.4-3.8,30.7s1.3,21.6,3.8,30.7,6.3,16.4,11.4,21.8,11.3,8.1,18.6,8.1Z"/>
  <path class="st0" d="M367.1,287c-9.9,0-18.4-2.2-25.5-6.5-7-4.3-12.5-10.4-16.4-18.3-3.9-7.9-6.1-17-6.7-27.6h19.1c1.1,11.4,4.5,19.3,10,23.8,5.5,4.4,12.2,6.6,20,6.6s14.9-2.4,18.7-7.2,5.8-10.7,5.8-17.6-1-10.2-3.1-13.4c-2-3.2-5.1-5.8-9.3-7.9s-9.4-4-15.8-5.8c-5.3-1.6-10.4-3.4-15.3-5.4-4.9-1.9-9.2-4.5-13-7.8-3.8-3.2-6.8-7.6-9-13s-3.3-12.5-3.3-21.2,1.6-16.8,4.7-23.3,7.7-11.6,13.6-15.1,13.1-5.4,21.6-5.4,16.7,1.9,22.8,5.7c6.1,3.8,10.9,9.1,14.2,16,3.4,6.9,5.4,14.8,6.2,23.8h-18.8c-.5-5.4-1.8-10-3.7-13.7s-4.7-6.5-8.2-8.5-7.8-2.9-13.1-2.9c-7.4,0-12.7,2.2-16.1,6.5-3.3,4.3-5,9.5-5,15.5s1.1,9.6,3.4,12.6c2.3,2.9,5.6,5.3,9.8,7,4.3,1.7,9.5,3.5,15.7,5.3,5.4,1.5,10.5,3.3,15.4,5.3,4.8,2,9.1,4.7,12.8,8.1,3.7,3.4,6.7,8,8.8,13.8,2.1,5.8,3.2,13.3,3.2,22.4s-1.9,19.4-5.6,26.6-8.9,12.6-15.5,16.2c-6.6,3.6-14.1,5.4-22.6,5.4h0Z"/>
  <path class="st0" d="M480.2,287c-11.1,0-20.7-3.7-28.6-11.1s-14-17.4-18.1-29.9c-4.2-12.5-6.3-26.4-6.3-41.7s2.2-29,6.5-41.5c4.4-12.4,10.4-22.3,18.2-29.8,7.8-7.4,16.9-11.1,27.2-11.1s15.3,2.2,21.5,6.5c6.2,4.3,11.5,10.2,15.8,17.8,4.5,7.7,7.8,17,10,28,2.2,11,3.3,23.1,3.3,36.5h-83.4c.5,10.2,2.1,19.4,4.8,27.5,2.7,8.2,6.5,14.7,11.4,19.4,4.9,4.8,10.8,7.1,17.8,7.1s13.8-2.4,18.7-7.2c5-4.8,8.3-11.3,10-19.6h18.4c-1.6,9.7-4.5,18.2-8.8,25.6-4.3,7.4-9.7,13.1-16.2,17.3-6.5,4.1-14,6.2-22.3,6.2h0ZM446.8,191.1h63c-.3-10.1-1.7-18.7-4.1-25.9s-5.9-12.7-10.3-16.6c-4.5-3.9-9.8-5.8-16.1-5.8s-12.1,2.1-16.6,6.3c-4.5,4.2-8,9.9-10.6,17.1-2.6,7.2-4.3,15.5-5.2,24.8h0Z"/>
  <path class="st0" d="M582.9,284c-4.8,0-9.1-1.1-12.8-3.1-3.7-2.1-6.6-5.5-8.7-10.1-2.1-4.7-3.1-10.8-3.1-18.5v-105.2h-17.1v-21.1h17.1v-49.4h18.6v49.4h22.4v21.1h-22.4v99c0,5.7,1,9.6,3,11.6s4.7,3,8.2,3,3.3-.2,5.1-.7c1.8-.5,3.3-.9,4.4-1.3h.6v22.8c-2.5.9-5,1.5-7.6,1.9-2.6.4-5.1.6-7.6.6h0Z"/>
  <path class="st2" d="M663.8,282.9l55.1-217.5h23l55.6,217.5h-22.7l-14.9-63.4h-59.3l-15.4,63.4h-21.3ZM706.1,196.1h48.1l-14.3-60.8c-1.7-7-3.2-14.1-4.6-21.3-1.4-7.1-2.9-15.5-4.6-25h-.6c-1,5.7-1.9,10.9-2.8,15.5s-1.9,9.6-3,15.1c-1.1,5.4-2.3,10.7-3.6,15.7l-14.7,60.8h0Z"/>
  <path class="st2" d="M817.3,282.9V65.4h20.7v217.5h-20.7Z"/>
  <path class="st1" d="M51.6,402.4h4.2l3.4,25.1c.6,5,1.2,9.9,1.9,14.8h.2c.7-5,1.5-9.9,2.2-14.8l4.4-25.1h3.7l4.4,25.1c.8,4.9,1.5,9.9,2.3,14.8h.2c.6-5,1.2-9.9,1.8-14.8l3.4-25.1h3.9l-6.6,46h-4.9l-4.8-27.7c-.6-3.6-1.1-6.9-1.5-10.5h-.2c-.5,3.6-1.1,6.9-1.6,10.5l-4.7,27.7h-4.8l-6.8-46Z"/>
  <path class="st1" d="M103.1,402.4h18.4v5h-14.3v14.4h12.1v5h-12.1v16.7h14.8v5h-18.9v-46h0Z"/>
  <path class="st1" d="M145.4,402.4h4.6l10.8,46h-4.3l-5.6-25.7c-1.2-5.1-2.2-10.2-3.2-15.5h-.2c-1,5.3-2,10.4-3.2,15.5l-5.6,25.7h-4.1l10.8-46h0ZM140.3,429.7h14.7v4.7h-14.7v-4.7h0Z"/>
  <path class="st1" d="M175.4,402.4h10c6.5,0,11.2,3.4,11.2,13s-4.7,13.6-11.2,13.6h-5.9v19.5h-4.1v-46h0ZM184.8,424.2c5,0,7.7-2.9,7.7-8.9s-2.7-8.2-7.7-8.2h-5.3v17.1h5.3ZM184.6,427.4l3.2-3,9.7,24.1h-4.6l-8.3-21.1h0Z"/>
  <path class="st1" d="M233,402.4h4.9l6.1,24.6c.8,3.2,1.5,6.4,2.3,9.6h.2c.8-3.2,1.4-6.5,2.2-9.6l6-24.6h4.9v46h-3.8v-25.3c0-4,.3-9.5.5-13.6h-.2l-2.5,10.5-6,23.8h-2.7l-6-23.8-2.5-10.5h-.2c.2,4.1.5,9.6.5,13.6v25.3h-3.7v-46Z"/>
  <path class="st1" d="M276.6,425.2c0-14.8,5.6-23.7,13.6-23.7s13.6,9,13.6,23.7-5.6,24-13.6,24-13.6-9.3-13.6-24ZM299.6,425.2c0-11.5-3.7-18.5-9.4-18.5s-9.4,7.1-9.4,18.5,3.7,18.9,9.4,18.9,9.4-7.4,9.4-18.9Z"/>
  <path class="st1" d="M320.8,402.4h10c6.5,0,11.2,3.4,11.2,13s-4.7,13.6-11.2,13.6h-5.9v19.5h-4.1v-46ZM330.2,424.2c5,0,7.7-2.9,7.7-8.9s-2.7-8.2-7.7-8.2h-5.3v17.1h5.3ZM330,427.4l3.2-3,9.7,24.1h-4.6l-8.3-21.1h0Z"/>
  <path class="st1" d="M358.6,402.4h18.4v5h-14.3v14.4h12.1v5h-12.1v16.7h14.8v5h-18.9v-46h0Z"/>
  <path class="st1" d="M393.1,444.9c0-2.6,1.3-4.5,2.9-4.5s2.9,1.8,2.9,4.5-1.3,4.4-2.9,4.4-2.9-1.8-2.9-4.4Z"/>
  <path class="st1" d="M433,402.4h4.2l3.4,25.1c.6,5,1.2,9.9,1.9,14.8h.2c.7-5,1.5-9.9,2.2-14.8l4.4-25.1h3.7l4.4,25.1c.8,4.9,1.5,9.9,2.3,14.8h.2c.6-5,1.2-9.9,1.8-14.8l3.4-25.1h3.9l-6.6,46h-4.9l-4.8-27.7c-.6-3.6-1.1-6.9-1.5-10.5h-.2c-.5,3.6-1.1,6.9-1.6,10.5l-4.7,27.7h-4.8l-6.8-46h0Z"/>
  <path class="st1" d="M491.2,402.4h4.6l10.8,46h-4.3l-5.6-25.7c-1.2-5.1-2.2-10.2-3.2-15.5h-.2c-1,5.3-2,10.4-3.2,15.5l-5.6,25.7h-4.1l10.8-46h0ZM486,429.7h14.7v4.7h-14.7v-4.7Z"/>
  <path class="st1" d="M518.8,442.4l2.4-4c2.3,3.4,5.5,5.7,8.8,5.7s6.7-3,6.7-7.5-2.3-6.2-5.3-8.1l-4.6-2.9c-3-1.8-6.5-5.1-6.5-11.9s4.2-12.2,10-12.2,7.1,2.4,9.4,5.7l-2.2,3.8c-2-2.7-4.3-4.3-7.2-4.3s-5.9,2.6-5.9,6.7,2.8,6.1,5.3,7.6l4.6,2.8c3.7,2.3,6.6,5.5,6.6,12.3s-4.2,13.1-10.9,13.1-8.4-2.6-11.2-6.8h0Z"/>
  <path class="st1" d="M562.9,407.4h-9.7v-5h23.4v5h-9.7v41.1h-4v-41.1h0Z"/>
  <path class="st1" d="M592.4,402.4h18.4v5h-14.3v14.4h12.1v5h-12.1v16.7h14.8v5h-18.9v-46h0Z"/>
  <path class="st1" d="M647.9,402.4h4.1v41.1h13.9v5h-18v-46h0Z"/>
  <path class="st1" d="M681.6,402.4h18.4v5h-14.3v14.4h12.1v5h-12.1v16.7h14.8v5h-18.9v-46h0Z"/>
  <path class="st1" d="M715,442.4l2.4-4c2.3,3.4,5.5,5.7,8.8,5.7s6.7-3,6.7-7.5-2.3-6.2-5.3-8.1l-4.6-2.9c-3-1.8-6.5-5.1-6.5-11.9s4.2-12.2,10-12.2,7.1,2.4,9.4,5.7l-2.2,3.8c-2-2.7-4.3-4.3-7.2-4.3s-5.9,2.6-5.9,6.7,2.8,6.1,5.3,7.6l4.6,2.8c3.7,2.3,6.6,5.5,6.6,12.3s-4.2,13.1-10.9,13.1-8.4-2.6-11.2-6.8h0Z"/>
  <path class="st1" d="M750.4,442.4l2.4-4c2.3,3.4,5.5,5.7,8.8,5.7s6.7-3,6.7-7.5-2.3-6.2-5.3-8.1l-4.6-2.9c-3-1.8-6.5-5.1-6.5-11.9s4.2-12.2,10-12.2,7.1,2.4,9.4,5.7l-2.2,3.8c-2-2.7-4.3-4.3-7.2-4.3s-5.9,2.6-5.9,6.7,2.8,6.1,5.3,7.6l4.6,2.8c3.7,2.3,6.6,5.5,6.6,12.3s-4.2,13.1-10.9,13.1-8.4-2.6-11.2-6.8h0Z"/>
  <path class="st1" d="M787.6,444.9c0-2.6,1.3-4.5,2.9-4.5s2.9,1.8,2.9,4.5-1.3,4.4-2.9,4.4-2.9-1.8-2.9-4.4Z"/>
</svg>